<svg height="990" width="720" xmlns="http://www.w3.org/2000/svg">
<rect height="990" fill="#555" width="720"></rect>
<text fill="#7f7" font-family="Courier New" font-size="12" xml:space="preserve">
<tspan x="10" y="26">11 megabytes installed</tspan>
<tspan x="10" y="42"></tspan>
<tspan x="10" y="58">node_modules</tspan>
<tspan x="10" y="74">└─┬ angular-jsdoc@1.5.0 </tspan>
<tspan x="10" y="90">  ├─┬ angular-template@2.0.13 </tspan>
<tspan x="10" y="106">  │ ├─┬ cheerio@0.22.0 </tspan>
<tspan x="10" y="122">  │ │ ├─┬ css-select@1.2.0 </tspan>
<tspan x="10" y="138">  │ │ │ ├── boolbase@1.0.0 </tspan>
<tspan x="10" y="154">  │ │ │ ├── css-what@2.1.0 </tspan>
<tspan x="10" y="170">  │ │ │ ├── domutils@1.5.1 </tspan>
<tspan x="10" y="186">  │ │ │ └── nth-check@1.0.1 </tspan>
<tspan x="10" y="202">  │ │ ├─┬ dom-serializer@0.1.0 </tspan>
<tspan x="10" y="218">  │ │ │ └── domelementtype@1.1.3 </tspan>
<tspan x="10" y="234">  │ │ ├── entities@1.1.1 </tspan>
<tspan x="10" y="250">  │ │ ├─┬ htmlparser2@3.9.2 </tspan>
<tspan x="10" y="266">  │ │ │ ├── domelementtype@1.3.0 </tspan>
<tspan x="10" y="282">  │ │ │ ├── domhandler@2.3.0 </tspan>
<tspan x="10" y="298">  │ │ │ ├── inherits@2.0.3 </tspan>
<tspan x="10" y="314">  │ │ │ └─┬ readable-stream@2.2.9 </tspan>
<tspan x="10" y="330">  │ │ │   ├── buffer-shims@1.0.0 </tspan>
<tspan x="10" y="346">  │ │ │   ├── core-util-is@1.0.2 </tspan>
<tspan x="10" y="362">  │ │ │   ├── isarray@1.0.0 </tspan>
<tspan x="10" y="378">  │ │ │   ├── process-nextick-args@1.0.7 </tspan>
<tspan x="10" y="394">  │ │ │   ├── string_decoder@1.0.0 </tspan>
<tspan x="10" y="410">  │ │ │   └── util-deprecate@1.0.2 </tspan>
<tspan x="10" y="426">  │ │ ├── lodash.assignin@4.2.0 </tspan>
<tspan x="10" y="442">  │ │ ├── lodash.bind@4.2.1 </tspan>
<tspan x="10" y="458">  │ │ ├── lodash.defaults@4.2.0 </tspan>
<tspan x="10" y="474">  │ │ ├── lodash.filter@4.6.0 </tspan>
<tspan x="10" y="490">  │ │ ├── lodash.flatten@4.4.0 </tspan>
<tspan x="10" y="506">  │ │ ├── lodash.foreach@4.5.0 </tspan>
<tspan x="10" y="522">  │ │ ├── lodash.map@4.6.0 </tspan>
<tspan x="10" y="538">  │ │ ├── lodash.merge@4.6.0 </tspan>
<tspan x="10" y="554">  │ │ ├── lodash.pick@4.4.0 </tspan>
<tspan x="10" y="570">  │ │ ├── lodash.reduce@4.6.0 </tspan>
<tspan x="10" y="586">  │ │ ├── lodash.reject@4.6.0 </tspan>
<tspan x="10" y="602">  │ │ └── lodash.some@4.6.0 </tspan>
<tspan x="10" y="618">  │ └── extend@2.0.1 </tspan>
<tspan x="10" y="634">  ├── js-template@0.1.4 </tspan>
<tspan x="10" y="650">  ├─┬ jsdoc@3.4.3 </tspan>
<tspan x="10" y="666">  │ ├── bluebird@3.4.7 </tspan>
<tspan x="10" y="682">  │ ├─┬ catharsis@0.8.8 </tspan>
<tspan x="10" y="698">  │ │ └─┬ underscore-contrib@0.3.0 </tspan>
<tspan x="10" y="714">  │ │   └── underscore@1.6.0 </tspan>
<tspan x="10" y="730">  │ ├── escape-string-regexp@1.0.5 </tspan>
<tspan x="10" y="746">  │ ├─┬ espree@3.1.7 </tspan>
<tspan x="10" y="762">  │ │ ├── acorn@3.3.0 </tspan>
<tspan x="10" y="778">  │ │ └── acorn-jsx@3.0.1 </tspan>
<tspan x="10" y="794">  │ ├── js2xmlparser@1.0.0 </tspan>
<tspan x="10" y="810">  │ ├─┬ klaw@1.3.1 </tspan>
<tspan x="10" y="826">  │ │ └── graceful-fs@4.1.11 </tspan>
<tspan x="10" y="842">  │ ├─┬ mkdirp@0.5.1 </tspan>
<tspan x="10" y="858">  │ │ └── minimist@0.0.8 </tspan>
<tspan x="10" y="874">  │ ├─┬ requizzle@0.2.1 </tspan>
<tspan x="10" y="890">  │ │ └── underscore@1.6.0 </tspan>
<tspan x="10" y="906">  │ ├── strip-json-comments@2.0.1 </tspan>
<tspan x="10" y="922">  │ ├── taffydb@2.6.2 </tspan>
<tspan x="10" y="938">  │ └── underscore@1.8.3 </tspan>
<tspan x="10" y="954">  ├── marked@0.3.6 </tspan>
<tspan x="10" y="970">  └── q@1.5.0</tspan>
</text>
</svg>
